HIERARCHY
ROOT Hips
{
 OFFSET 0.000000 0.000000 0.000000
 CHANNELS 6 Xposition Yposition Zposition Yrotation Xrotation Zrotation
 JOINT Chest
 {
  OFFSET 0.000000 9.585900 0.002600
  CHANNELS 3 Yrotation Xrotation Zrotation
  JOINT Chest2
  {
   OFFSET 0.000000 9.601200 -0.005300
   CHANNELS 3 Yrotation Xrotation Zrotation
   JOINT Chest3
   {
    OFFSET 0.000000 9.561800 0.000000
    CHANNELS 3 Yrotation Xrotation Zrotation
    JOINT Chest4
    {
     OFFSET 0.000000 9.552100 0.000000
     CHANNELS 3 Yrotation Xrotation Zrotation
     JOINT Neck
     {
      OFFSET 0.000000 14.453000 0.000000
      CHANNELS 3 Yrotation Xrotation Zrotation
      JOINT Head
      {
       OFFSET 0.000000 8.936500 -0.011300
       CHANNELS 3 Yrotation Xrotation Zrotation
       End Site
       {
        OFFSET 0.000000 17.073600 -0.006000
       }
      }
     }
     JOINT RightCollar
     {
      OFFSET -2.921100 9.558500 0.000000
      CHANNELS 3 Yrotation Xrotation Zrotation
      JOINT RightShoulder
      {
       OFFSET -13.519700 0.000000 0.000000
       CHANNELS 3 Yrotation Xrotation Zrotation
       JOINT RightElbow
       {
        OFFSET 0.000000 -29.696600 0.000000
        CHANNELS 3 Yrotation Xrotation Zrotation
        JOINT RightWrist
        {
         OFFSET 0.000000 -24.004700 0.000000
         CHANNELS 3 Yrotation Xrotation Zrotation
         End Site
         {
          OFFSET 0.000000 -17.728500 0.000000
         }
        }
       }
      }
     }
     JOINT LeftCollar
     {
      OFFSET 2.921100 9.558500 0.000000
      CHANNELS 3 Yrotation Xrotation Zrotation
      JOINT LeftShoulder
      {
       OFFSET 13.519700 0.000000 0.000000
       CHANNELS 3 Yrotation Xrotation Zrotation
       JOINT LeftElbow
       {
        OFFSET 0.000000 -29.696600 0.000000
        CHANNELS 3 Yrotation Xrotation Zrotation
        JOINT LeftWrist
        {
         OFFSET 0.000000 -24.004700 0.000000
         CHANNELS 3 Yrotation Xrotation Zrotation
         End Site
         {
          OFFSET 0.000000 -17.728500 0.000000
         }
        }
       }
      }
     }
    }
   }
  }
 }
 JOINT RightHip
 {
  OFFSET -7.771700 -0.012900 -0.001300
  CHANNELS 3 Yrotation Xrotation Zrotation
  JOINT RightKnee
  {
   OFFSET 0.000000 -40.869800 0.001200
   CHANNELS 3 Yrotation Xrotation Zrotation
   JOINT RightAnkle
   {
    OFFSET 0.000000 -39.717900 0.002100
    CHANNELS 3 Yrotation Xrotation Zrotation
    JOINT RightToe
    {
     OFFSET 0.000000 -4.965400 11.033500
     CHANNELS 3 Yrotation Xrotation Zrotation
     End Site
     {
      OFFSET 0.000000 -1.423100 5.872300
     }
    }
   }
  }
 }
 JOINT LeftHip
 {
  OFFSET 7.771700 -0.012900 -0.001300
  CHANNELS 3 Yrotation Xrotation Zrotation
  JOINT LeftKnee
  {
   OFFSET 0.000000 -40.869800 0.001200
   CHANNELS 3 Yrotation Xrotation Zrotation
   JOINT LeftAnkle
   {
    OFFSET 0.000000 -39.717900 0.002100
    CHANNELS 3 Yrotation Xrotation Zrotation
    JOINT LeftToe
    {
     OFFSET 0.000000 -4.965400 11.033500
     CHANNELS 3 Yrotation Xrotation Zrotation
     End Site
     {
      OFFSET 0.000000 -1.423100 5.872300
     }
    }
   }
  }
 }
}
MOTION
Frames: 6
Frame Time: 0.008333
-59.686010 50.488955 -1.518306 163.122135 -6.169613 1.914568 3.901272 6.542869 0.950505 0.166123 0.336055 -0.000235 0.264740 0.469774 -0.013610 3.359200 6.390986 0.090886 2.453269 19.027124 -0.627346 4.686943 -0.400153 -1.916877 -0.197211 3.399382 -1.617862 -9.913050 -18.045593 -16.172799 -79.525054 -70.214877 111.906428 -4.613277 -8.055965 -21.888147 -4.717488 0.678383 5.127305 20.607355 -6.871110 23.456256 71.370596 -64.379096 -110.573940 0.573102 5.693697 -0.087133 1.694700 -74.447497 -7.687068 -122.489751 80.133188 -120.132765 -0.349742 -16.323278 -1.168948 -0.219761 0.925936 -0.133527 -3.090837 -77.590452 20.028126 113.627758 78.481063 110.568423 -15.489996 -22.780744 -0.854954 -0.419106 -1.115272 -0.264781
-59.674477 50.488845 -1.514357 163.116110 -6.185113 1.919827 3.924993 6.637496 0.958701 0.158360 0.300373 -0.005133 0.277472 0.526139 -0.008436 3.344917 6.363430 0.092299 2.585162 19.040361 -0.632895 4.878625 -0.430823 -2.009148 0.084633 3.375387 -1.662159 -10.270353 -17.687435 -15.721130 -77.072544 -68.935502 109.642867 -5.189791 -8.958531 -23.500385 -4.558178 0.468260 5.177506 20.189508 -6.695155 23.155674 70.580831 -64.194120 -109.599343 0.771935 5.559997 0.446417 1.626947 -74.430932 -7.638093 -122.522920 80.149874 -120.174225 -0.288596 -16.333328 -1.159039 -0.275629 0.935866 -0.165328 -3.130035 -77.571469 20.042066 113.549228 78.471309 110.531312 -15.522259 -22.775462 -0.861252 -0.382227 -1.117337 -0.278083
-59.662527 50.488337 -1.511195 163.122260 -6.218678 1.911389 3.989078 6.690383 1.019489 0.101778 0.316314 -0.024459 0.343832 0.532314 0.017394 3.347051 6.386690 0.108956 2.676936 19.021995 -0.677118 5.071140 -0.413552 -2.095887 0.321952 3.367004 -1.726529 -10.556639 -17.276898 -15.203882 -74.761226 -67.612029 107.444331 -5.705365 -9.724884 -25.018013 -4.450839 0.261107 5.181118 19.692148 -6.591657 22.665268 69.692627 -63.990824 -108.575631 0.988367 5.407467 1.047444 1.573070 -74.397819 -7.599067 -122.589195 80.159436 -120.216447 -0.291445 -16.335681 -1.170360 -0.271456 0.932213 -0.177979 -3.187039 -77.536788 20.083011 113.509804 78.467534 110.509474 -15.541110 -22.775688 -0.841669 -0.371418 -1.111119 -0.265641
-59.655758 50.486623 -1.508270 163.143238 -6.259758 1.917019 4.046739 6.701804 1.037245 0.142467 0.318197 -0.004368 0.311854 0.536826 0.002274 3.418253 6.407485 0.162782 2.752285 19.038798 -0.715843 5.261404 -0.362062 -2.171536 0.507075 3.434328 -1.760864 -10.743920 -16.861742 -14.636997 -72.492911 -66.257281 105.223233 -6.181006 -10.335246 -26.422256 -4.384199 0.142249 5.173538 19.112048 -6.616395 22.001638 68.686778 -63.763605 -107.511542 1.218434 5.235370 1.683251 1.562994 -74.357182 -7.621612 -122.655831 80.164686 -120.261427 -0.297337 -16.349087 -1.181200 -0.261554 0.940421 -0.175441 -3.262197 -77.491907 20.103841 113.445816 78.445059 110.448505 -15.542648 -22.772197 -0.829993 -0.402230 -1.110371 -0.281093
-59.646738 50.482237 -1.498982 163.200862 -6.285559 1.878791 4.091096 6.677843 1.090984 0.168702 0.312291 0.000942 0.295285 0.546455 0.002353 3.478731 6.406620 0.205396 2.860001 19.074882 -0.739018 5.464576 -0.289231 -2.245821 0.704922 3.548896 -1.750912 -10.816735 -16.479482 -14.043961 -70.201093 -64.861874 102.912457 -6.639903 -10.759931 -27.685095 -4.299678 0.119586 5.155713 18.463795 -6.827352 21.202282 67.552195 -63.498612 -106.424227 1.459597 5.054226 2.302302 1.370376 -74.334231 -7.504224 -122.793782 80.187250 -120.360973 -0.307199 -16.355796 -1.214186 -0.247437 0.942370 -0.156399 -3.733460 -77.455168 20.436912 113.225805 78.400294 110.259223 -15.542579 -22.771281 -0.904273 -0.372964 -1.090327 -0.268932
-59.643335 50.475675 -1.491770 163.236861 -6.330427 1.862816 4.157896 6.666434 1.126445 0.171724 0.312942 0.002882 0.300477 0.547574 0.005771 3.532058 6.399530 0.248115 2.983132 19.116242 -0.764646 5.696398 -0.205601 -2.328980 0.925671 3.688294 -1.717580 -10.757267 -16.170245 -13.442764 -67.822319 -63.379009 100.439814 -7.088194 -10.966846 -28.787041 -4.214711 0.204300 5.094665 17.783578 -7.275121 20.349208 66.321649 -63.159594 -105.375401 1.697659 4.882359 2.850121 1.258033 -74.297591 -7.454071 -122.928016 80.208645 -120.483711 -0.270510 -16.357175 -1.220408 -0.279491 0.943338 -0.169907 -3.983804 -77.406241 20.609110 113.131873 78.378654 110.171617 -15.550745 -22.773466 -0.942142 -0.361319 -1.072599 -0.245864
